<svg xmlns="http://www.w3.org/2000/svg" viewBox="0 0 99.5 20"><defs><style>.cls-1{fill:#dc012e;}.cls-2{fill:#1c252c;}</style></defs><g id="Layer_2" data-name="Layer 2"><g id="Layer_1-2" data-name="Layer 1"><path class="cls-1" d="M15.05,7v9.27h3.18c1.8,0,3.26-1.18,3.26-2.63a2.52,2.52,0,0,0-1.38-2.13,2.38,2.38,0,0,0,1.18-2A2.74,2.74,0,0,0,18.35,7Zm2,8.39V12.21c1.38-.18,2.5.51,2.5,1.6s-1.12,1.82-2.5,1.62m2.28-5.79a1.79,1.79,0,0,1-2.27,1.65V8a1.81,1.81,0,0,1,2.27,1.68"/><path class="cls-1" d="M11.92,4.26A8.22,8.22,0,0,1,17,6.62V5.1a12.24,12.24,0,0,0-5.12-1.66Z"/><polygon class="cls-1" points="9.04 10.14 11.55 10.14 11.55 10.14 11.55 1.43 15.33 1.43 15.33 0 5.27 0 5.27 1.43 9.04 1.43 9.04 10.14"/><polygon class="cls-1" points="11.55 10.14 10.36 12.41 7.17 7.04 5.78 7.04 5.78 16.31 7.17 16.31 7.17 11.89 9.72 16.31 12.11 11.89 12.11 16.31 14.21 16.31 14.21 7.04 13.18 7.04 11.55 10.14 11.55 10.14 11.55 10.14"/><path class="cls-1" d="M11.13,19.18c-4.45,0-8.06-3.35-8.06-7.48A7.58,7.58,0,0,1,8.68,4.57V3.51C3.74,4.21,0,7.6,0,11.68,0,16.27,4.74,20,10.58,20A12.54,12.54,0,0,0,17,18.27V16.78a8.36,8.36,0,0,1-5.91,2.4"/><path class="cls-2" d="M31.51,2.23a.41.41,0,0,0-.3-.12.4.4,0,0,0-.29.12.41.41,0,0,0-.12.3.41.41,0,0,0,.41.41.41.41,0,0,0,.3-.12.37.37,0,0,0,.12-.29.39.39,0,0,0-.12-.3m1.39,0a.37.37,0,0,0-.29-.12.4.4,0,0,0-.29.12.38.38,0,0,0-.13.3.37.37,0,0,0,.13.29.4.4,0,0,0,.29.12.41.41,0,0,0,.3-.12A.36.36,0,0,0,33,2.53a.41.41,0,0,0-.12-.3M34,3.36h-.52V6.45a1.25,1.25,0,0,1-.38.91,1.23,1.23,0,0,1-.91.37,1.19,1.19,0,0,1-.9-.38,1.23,1.23,0,0,1-.38-.9V3.36h-1V6.45a2.06,2.06,0,0,0,4.12,0Zm-4.57,0h-3.6v.52H27.1V8.51h1V3.88h1.29Z"/><path class="cls-2" d="M37.51,6.31a1.47,1.47,0,0,0,.67-.56,1.58,1.58,0,0,0,.24-.85A1.48,1.48,0,0,0,38,3.81a1.5,1.5,0,0,0-1.09-.45H34.82V8.51h1V3.88h.51a1,1,0,0,1,.73.3,1,1,0,0,1,0,1.45,1,1,0,0,1-.73.3H36.1l1.49,2.58h1.19Z"/><path class="cls-2" d="M49.13,3.36,47.84,5.74,46.57,3.36H45.39L47,6.31v2.2h1.13V6.31l1.59-2.95Zm-4.32-1.5a.51.51,0,0,0-.37-.15.51.51,0,0,0-.51.51.51.51,0,0,0,.15.37.49.49,0,0,0,.36.15A.51.51,0,0,0,45,2.22a.49.49,0,0,0-.15-.36m.12,1.5h-1V8.51h1ZM41.2,5.55l2.11-2.19H42.6L40.35,5.7V3.36h-1V8.51h1V6.13l1.79,2.38h1.3Z"/><path class="cls-2" d="M60.08,7a1.61,1.61,0,0,1-.28.38,1.9,1.9,0,0,1-.42.31,2.3,2.3,0,0,1-.49.2,1.93,1.93,0,0,1-.52.08,1.25,1.25,0,0,1-1.12-.7,2.79,2.79,0,0,1-.32-1.36,2.78,2.78,0,0,1,.32-1.35,1.23,1.23,0,0,1,1.12-.7,3,3,0,0,1,.43,0,1.31,1.31,0,0,1,.42.11,2.32,2.32,0,0,1,.42.25,4.15,4.15,0,0,1,.44.42V3.92a2.78,2.78,0,0,0-1.71-.56,2.56,2.56,0,0,0-2.58,2.57,2.56,2.56,0,0,0,2.58,2.58A2.85,2.85,0,0,0,60.08,8ZM53,8H51.21V6.19H53V5.67H51.21V3.88H53V3.36H50.18V8.51H53Z"/><path class="cls-2" d="M84.57,6.31a1.45,1.45,0,0,0,.66-.56,1.58,1.58,0,0,0,.24-.85A1.5,1.5,0,0,0,85,3.81a1.48,1.48,0,0,0-1.09-.45H81.87V8.51h1V3.88h.52a1,1,0,0,1,1,1,1,1,0,0,1-1,1h-.27l1.49,2.58h1.2ZM81,3.36h-.52V6.45a1.22,1.22,0,0,1-.38.91,1.19,1.19,0,0,1-.9.37,1.22,1.22,0,0,1-.91-.38,1.23,1.23,0,0,1-.38-.9V3.36h-1V6.45a1.94,1.94,0,0,0,.61,1.45A1.94,1.94,0,0,0,79,8.51,2.07,2.07,0,0,0,81,6.45Zm-5,0h-1V5.67H73V3.36H72V8.51h1V6.19h2.06V8.51h1Zm-4.94,0-1,0L68.44,6.87,66.63,3.34l-1,0V8.51h.52V4.69l1.74,3.4.26.51.24-.51,1.71-3.46V8.51h1Zm-6.33,0H64.3V6.45a1.22,1.22,0,0,1-.38.91,1.19,1.19,0,0,1-.9.37,1.22,1.22,0,0,1-.91-.38,1.23,1.23,0,0,1-.38-.9V3.36h-1V6.45a1.94,1.94,0,0,0,.61,1.45,1.94,1.94,0,0,0,1.45.61,2.07,2.07,0,0,0,2.06-2.06Z"/><path class="cls-2" d="M95.52,8h-1.8V6.19h1.8V5.67h-1.8V3.88h1.8V3.36H92.69V8.51h2.83ZM91.64,3.36,90.35,5.74,89.07,3.36H87.9l1.59,2.95v2.2h1.14V6.31l1.59-2.95Zm-4.32-1.5A.53.53,0,0,0,87,1.71a.51.51,0,0,0-.51.51.51.51,0,0,0,.15.37.49.49,0,0,0,.36.15.53.53,0,0,0,.37-.15.51.51,0,0,0,.15-.37.49.49,0,0,0-.15-.36m.12,1.5h-1V8.51h1Z"/><polygon class="cls-2" points="99.5 3.36 95.89 3.36 95.89 3.88 97.17 3.88 97.17 8.51 98.2 8.51 98.2 3.88 99.5 3.88 99.5 3.36"/><path class="cls-2" d="M37.29,15.81h-1.8V14h1.8V13.5h-1.8V11.7h1.8v-.52H34.46v5.15h2.83ZM32.6,11.18l-1,0L29.89,14.7l-1.81-3.53h-1v5.15h.52V12.52l1.74,3.4.25.5.25-.5,1.7-3.46v3.87h1Z"/><path class="cls-2" d="M65.88,15.27a1.1,1.1,0,0,1-.2.28.93.93,0,0,1-.64.26h-.77V14H65a.93.93,0,0,1,.64.26,1,1,0,0,1,.2.29.8.8,0,0,1,.07.34.86.86,0,0,1-.07.36M65.61,13a.85.85,0,0,1-.48.48,1,1,0,0,1-.35.07h-.51V11.7h.51a.9.9,0,0,1,.64.27.86.86,0,0,1,.27.63.78.78,0,0,1-.08.35m1.12,1.24a1.33,1.33,0,0,0-.68-.49,1.3,1.3,0,0,0,.67-1.17,1.27,1.27,0,0,0-.4-.95,1.31,1.31,0,0,0-1-.4H63.24v5.15h2.38a1.34,1.34,0,0,0,1-.39,1.31,1.31,0,0,0,.4-1,1.33,1.33,0,0,0-.25-.79m-8.42,1.62H55.72l2.59-4.12v-.51H54.52v.52h2.57l-2.57,4.11v.52h3.79Zm-5.28,0H51.22V14H53V13.5H51.22V11.7H53v-.52H50.19v5.15H53Zm-6.66-2.44,2.1-2.19h-.71l-2.25,2.34V11.18h-1v5.15h1V14l1.8,2.37H48.6Zm-4.75.77a1.56,1.56,0,0,0,.67-.57,1.53,1.53,0,0,0,.24-.85A1.55,1.55,0,0,0,41,11.18H38.93v5.15h1V11.7h.51a1,1,0,0,1,1,1,1,1,0,0,1-.3.73,1,1,0,0,1-.73.29h-.26l1.49,2.58h1.19Z"/><path class="cls-2" d="M78.72,11.18H78.2v3.76l-3.15-3.76h-.71v5.15h.52V12.56L78,16.33h.7Zm-9.41,3.19.83-2.07L71,14.37Zm1.5-3.19h-.76L68,16.33h.56l.58-1.44h2.07l.59,1.44h1.11Z"/><path class="cls-2" d="M87.44,14.37l.84-2.07.83,2.07Zm1.5-3.19h-.76L86.1,16.33h.56l.58-1.44h2.07l.59,1.44H91Zm-6.48,2.19,2.1-2.19h-.71L81.6,13.52V11.18h-1v5.15h1V14l1.8,2.37h1.29Z"/><path class="cls-2" d="M98.23,11.18h-1v5.15h1Zm-3.34,2.54L93.77,13a.69.69,0,0,1-.35-.63.65.65,0,0,1,.21-.49.68.68,0,0,1,.49-.2,1.2,1.2,0,0,1,1,.53l.22-.56a2.35,2.35,0,0,0-1.54-.49,1.39,1.39,0,0,0-1,.42,1.42,1.42,0,0,0-.22,1.68,1.29,1.29,0,0,0,.47.51l1.2.72a.65.65,0,0,1,.33.6.67.67,0,0,1-.71.7,1.41,1.41,0,0,1-1.25-.67l-.3.62a2.9,2.9,0,0,0,1.81.57,1.43,1.43,0,0,0,1.42-1.41,1.33,1.33,0,0,0-.67-1.2"/></g></g></svg>